<svg width="24" height="24" viewBox="0 0 24 24" fill="none" xmlns="http://www.w3.org/2000/svg">
<path fill-rule="evenodd" clip-rule="evenodd" d="M14.8517 19.6909C16.4377 20.559 17.8324 19.5069 17.5291 17.6657L16.9845 14.3597L19.2915 12.0184C20.5746 10.7162 20.0445 9.01003 18.2689 8.7414L15.0806 8.25906L13.6618 5.26605C12.8671 3.58952 11.1416 3.57149 10.3453 5.25118L8.91951 8.25906L5.73128 8.7414C3.95812 9.00965 3.42372 10.7144 4.7086 12.0184L7.01563 14.3597L6.47101 17.6657C6.16812 19.5043 7.56022 20.5602 9.14842 19.6909L12.0001 18.1301L14.8517 19.6909Z" fill="#171717"/>
<mask id="mask0_1_1466" style="mask-type:luminance" maskUnits="userSpaceOnUse" x="4" y="4" width="16" height="16">
<path fill-rule="evenodd" clip-rule="evenodd" d="M14.8517 19.6909C16.4377 20.559 17.8324 19.5069 17.5291 17.6657L16.9845 14.3597L19.2915 12.0184C20.5746 10.7162 20.0445 9.01003 18.2689 8.7414L15.0806 8.25906L13.6618 5.26605C12.8671 3.58952 11.1416 3.57149 10.3453 5.25118L8.91951 8.25906L5.73128 8.7414C3.95812 9.00965 3.42372 10.7144 4.7086 12.0184L7.01563 14.3597L6.47101 17.6657C6.16812 19.5043 7.56022 20.5602 9.14842 19.6909L12.0001 18.1301L14.8517 19.6909Z" fill="white"/>
</mask>
<g mask="url(#mask0_1_1466)">
</g>
</svg>
